<svg version="1.2" xmlns="http://www.w3.org/2000/svg" viewBox="0 0 1024 1024" width="1024" height="1024">
	<title>copilot-logo-ai</title>
	<defs>
		<clipPath clipPathUnits="userSpaceOnUse" id="cp1">
			<path d="m955.41 256c141.38 244.89 57.48 558.02-187.41 699.41-244.89 141.38-558.02 57.48-699.41-187.41-141.38-244.89-57.48-558.02 187.41-699.41 244.89-141.38 558.02-57.48 699.41 187.41z"/>
		</clipPath>
	</defs>
	<style>
		.s0 { fill: #f6f8f9 } 
	</style>
	<g id="Layer 1">
		<g id="&lt;Clip Group&gt;" clip-path="url(#cp1)">
			<path id="Lod" class="s0" d="m541.1 279.7l26.3-10.1 35.4 20.4 0.3 3.7 0.4 3.6 75.7 43.8 3.4-1.5 3.5-1.5 35.2 20.4 4.1 25.8c4.8 30.4 4.8 30 3.2 32.8-1.1 1.9-0.4 6.7 5.2 36.5 6.3 33.3 6.5 34.3 8.9 36.1 2.5 1.9 2.7 2.6 13.2 61.7l10.7 59.9-4.5 7.8 4.3 22.9c2.3 12.6 4.5 24.3 4.8 25.8l0.6 2.8-19.5 34.9c-10.7 19.2-20.8 37.4-22.3 40.6-2.8 5.7-2.8 5.8-6.2 7l-3.5 1.3-68.1-39.3-3.1-4.4-2.9-4.3-36.5-21.1-36.5-20.9-3 0.6c-2.9 0.5-3.3 0.8-7.1 6.4-6.5 9.6-13.4 15.2-16.1 13.1-1.5-1.2-0.6-2.9 6.3-12 4.9-6.5 7.8-12.8 7.6-16.9-0.2-3.2-1.8-2.4-7.4 3.4-9.3 9.7-11.9 11.5-20.3 14.2l-7.8 2.5-24.7-14.2-0.5-9c-0.5-8.1-0.4-10 2.1-19.4 2.6-10.2 2.7-14 0.3-12.8-0.4 0.2-1.5 1.5-2.3 2.8-2.5 4.4-6.4 3.1-5.2-1.7 0.3-1.1 0.4-3.5 0.1-5.3l-0.4-3.2-34.8-20.1-3.6 1.7c-2 0.8-4.2 2.2-4.8 3-0.8 1-1.6 1.3-2.7 0.9-1.8-0.7-1.7-3.4 0.1-6.7 0.6-1 0.9-2.2 0.8-2.5-0.9-1.5-3.1 0-10.3 7.1-7 7-8.3 7.9-15.9 11.8l-8.3 4-24.3-14-2-7.9c-2-7.7-2-8.1-0.2-16.3 1.1-4.7 2.4-9.9 3.1-11.5 0.5-1.6 0.9-3.7 0.8-4.7-0.3-1.6-0.3-1.6-2-1-4.2 1.7-9.8 10.2-13.8 20.7-2.3 6.3-3.7 7.6-5.8 5.4-2-2.2-0.4-9.4 4.4-20 2.4-5.3 2.7-6.5 2.1-9l-0.8-2.9-73.3-42.3-5.4-0.6-5.5-0.5-67.8-39.2-0.5-3.9c-0.6-4-0.5-4.1 2.6-8.7 1.8-2.6 12.4-20.1 23.6-39 17.3-29 20.7-34.4 22.1-34.9 0.9-0.3 12.4-4.4 25.4-9l23.7-8.5 2.5-4 2.6-3.9 52.7-19.2c65.1-23.8 60.4-22.3 63.4-20.6 2.3 1.3 3.3 1 35.9-10.4 30.1-10.7 33.6-12.1 34.8-14.1 1.2-2.1 4.4-3.6 27.5-12.4z"/>
			<g id="&lt;Group&gt;">
				<path id="&lt;Path&gt;" class="s0" d="m386.9 660.8l-157.4 272.6-63.1-48.1-80.4-99.3c0 0-45.7-60.1-4.6-35.5 36.4 22 119.5 69.9 192.2 10.9 14.1-11.5 15-14.2 35-41.6l53-79.6q1.2-1.9 2.8-3.6l11.4-12.2c8.1-8.6 22-2 20.2 9.6l-0.3 2c-1.4 8.7-4.3 17.1-8.8 24.8z"/>
				<path id="&lt;Path&gt;" class="s0" d="m487.5 688.9l1.5-1.2c9.2-7.3 21.8 1.3 18.4 12.6l-4.9 16.1q-0.7 2.2-1.7 4.2l-42.4 85.7c-13.8 31-15.7 33.1-18.5 51-14.8 92.6 68.3 140.6 105.5 161.1 41.9 23.2-33.1 13.8-33.1 13.8l-126.1-20-73.3-30.6 157.4-272.7c4.5-7.7 10.3-14.4 17.2-20z"/>
			</g>
		</g>
		<g id="&lt;Group&gt;">
			<path id="&lt;Compound Path&gt;" fill-rule="evenodd" class="s0" d="m955.4 256c141.4 244.9 57.5 558-187.4 699.4-80.6 46.6-168.7 68.7-255.5 68.7-177 0-349.1-91.8-443.9-256.1-141.4-244.9-57.5-558 187.4-699.4 80.6-46.6 168.7-68.7 255.5-68.7 177 0 349.1 91.8 443.9 256.1zm-443.9-232.1c-85.1 0-169.3 22.7-243.5 65.5-57.1 32.9-106 76-145.3 128.2-38.1 50.3-65.7 106.9-82.1 168.1-16.4 61.2-20.8 124-13 186.6 8.1 64.8 28.8 126.6 61.8 183.7 43.6 75.6 106.6 138.1 182.1 180.7 73.4 41.5 156.7 63.4 241 63.4 85.1 0 169.3-22.7 243.5-65.5 57.1-32.9 106-76 145.3-128.2 38.1-50.3 65.7-106.9 82.1-168.1 16.4-61.2 20.8-124 13-186.6-8.1-64.8-28.8-126.6-61.8-183.7-43.6-75.6-106.6-138.1-182.1-180.7-73.4-41.5-156.7-63.4-241-63.4z"/>
		</g>
	</g>
</svg>